<svg xmlns="http://www.w3.org/2000/svg" viewBox="0 0 64 64">
  <defs>
    <linearGradient id="grad" x1="0%" y1="0%" x2="100%" y2="100%">
      <stop offset="0%" stop-color="#0ea5e9" />
      <stop offset="100%" stop-color="#1d4ed8" />
    </linearGradient>
  </defs>
  <rect width="64" height="64" rx="12" fill="url(#grad)" />
  <path d="M18 20h28c1.1 0 2 .9 2 2v6c0 1.1-.9 2-2 2H18c-1.1 0-2-.9-2-2v-6c0-1.1.9-2 2-2zm0 14h18c1.1 0 2 .9 2 2v6c0 1.1-.9 2-2 2H18c-1.1 0-2-.9-2-2v-6c0-1.1.9-2 2-2zm22 6h8a2 2 0 0 0 2-2v-2a2 2 0 0 0-2-2h-8v6z" fill="#f8fafc" />
</svg>
